<svg width="22" height="22" viewBox="0 0 22 22" fill="none" xmlns="http://www.w3.org/2000/svg">
<path d="M14.4375 11.6875C14.4375 13.586 12.8985 15.125 11 15.125C9.10152 15.125 7.5625 13.586 7.5625 11.6875C7.5625 9.78902 9.10152 8.25 11 8.25C12.8985 8.25 14.4375 9.78902 14.4375 11.6875Z" fill="#4A4C5D"/>
<path d="M2.75 5.5C1.23122 5.5 0 6.73122 0 8.25V16.5C0 18.0188 1.23122 19.25 2.75 19.25H19.25C20.7688 19.25 22 18.0188 22 16.5V8.25C22 6.73122 20.7688 5.5 19.25 5.5H17.6391C16.9097 5.5 16.2103 5.21027 15.6945 4.69454L14.5555 3.55546C14.0397 3.03973 13.3403 2.75 12.6109 2.75H9.38909C8.65974 2.75 7.96027 3.03973 7.44454 3.55546L6.30546 4.69454C5.78973 5.21027 5.09026 5.5 4.36091 5.5H2.75ZM3.4375 8.25C3.0578 8.25 2.75 7.9422 2.75 7.5625C2.75 7.1828 3.0578 6.875 3.4375 6.875C3.8172 6.875 4.125 7.1828 4.125 7.5625C4.125 7.9422 3.8172 8.25 3.4375 8.25ZM15.8125 11.6875C15.8125 14.3454 13.6579 16.5 11 16.5C8.34213 16.5 6.1875 14.3454 6.1875 11.6875C6.1875 9.02963 8.34213 6.875 11 6.875C13.6579 6.875 15.8125 9.02963 15.8125 11.6875Z" fill="#4A4C5D"/>
</svg>
