<svg width="72" height="72" viewBox="0 0 72 72" fill="none" xmlns="http://www.w3.org/2000/svg">
<circle cx="36" cy="36" r="36" fill="#1B1C2C"/>
<path d="M34.752 31.5469C34.752 30.7656 34.8203 30.1341 34.957 29.6523C35.1003 29.1641 35.2988 28.7767 35.5527 28.4902C35.8066 28.1973 36.1517 27.9141 36.5879 27.6406C37.0632 27.3281 37.431 27.0124 37.6914 26.6934C37.9518 26.3743 38.0788 26.0065 38.0723 25.5898C38.0723 25.2708 37.9974 24.9909 37.8477 24.75C37.6979 24.5026 37.4928 24.3138 37.2324 24.1836C36.9785 24.0469 36.6921 23.9753 36.373 23.9688C36.0605 23.9753 35.7708 24.0469 35.5039 24.1836C35.237 24.3203 35.0189 24.5221 34.8496 24.7891C34.6803 25.0495 34.5892 25.362 34.5762 25.7266H31.8027C31.8158 24.8411 32.0273 24.0957 32.4375 23.4902C32.8477 22.8783 33.3945 22.4225 34.0781 22.123C34.7682 21.8171 35.5397 21.6641 36.3926 21.6641C37.304 21.6641 38.1081 21.8171 38.8047 22.123C39.5078 22.429 40.0547 22.8717 40.4453 23.4512C40.8424 24.0241 41.041 24.7044 41.041 25.4922C41.041 26.2604 40.8587 26.918 40.4941 27.4648C40.1361 28.0052 39.6152 28.4805 38.9316 28.8906C38.5475 29.1185 38.2415 29.3496 38.0137 29.584C37.7858 29.8184 37.6133 30.0918 37.4961 30.4043C37.3854 30.7168 37.3301 31.0977 37.3301 31.5469V31.7617H34.752V31.5469ZM34.459 34.5352C34.4525 34.2422 34.5208 33.972 34.6641 33.7246C34.8138 33.4707 35.0156 33.2721 35.2695 33.1289C35.5234 32.9857 35.8001 32.9141 36.0996 32.9141C36.3861 32.9141 36.653 32.9857 36.9004 33.1289C37.1478 33.2721 37.3464 33.4707 37.4961 33.7246C37.6458 33.972 37.7207 34.2422 37.7207 34.5352C37.7207 34.8346 37.6458 35.1113 37.4961 35.3652C37.3464 35.6126 37.1478 35.8112 36.9004 35.9609C36.653 36.1042 36.3861 36.1758 36.0996 36.1758C35.8001 36.1758 35.5234 36.1042 35.2695 35.9609C35.0156 35.8112 34.8138 35.6126 34.6641 35.3652C34.5208 35.1113 34.4525 34.8346 34.459 34.5352Z" fill="#333442"/>
<path d="M16.6586 65.7742L18.6586 62.2742C15.992 62.2742 11.2586 61.9742 13.6586 60.7742L29.6587 52.2742V50.7742C27.8254 49.6076 25.5587 47.3742 31.1587 47.7742C27.6587 47.4409 20.2586 44.4742 18.6586 35.2742C15.992 35.2742 11.2586 33.9742 13.6586 28.7742C14.1586 27.7742 15.8586 25.9742 18.6586 26.7742C16.992 23.4409 15.5587 15.6741 23.1587 11.2741C27.3254 7.94077 38.3587 3.37411 49.1587 11.7741C52.1587 13.9408 57.2587 19.9742 53.6587 26.7742C56.1587 26.2741 60.6587 26.8739 58.6587 33.2739C58.1587 34.2739 56.3587 35.9739 53.1587 34.7739C52.3254 38.6075 48.6587 46.5745 40.6587 47.7742C42.6587 47.6077 45.7587 47.9745 42.1587 50.7742V51.7739L58.6587 61.2739C58.8254 61.6074 58.0587 62.2742 53.6587 62.2742L55.1587 65.7742" stroke="#333442" stroke-linecap="round" stroke-dasharray="2 2"/>
</svg>
