<?xml version="1.0" standalone="no"?>
<!DOCTYPE svg PUBLIC "-//W3C//DTD SVG 20010904//EN"
 "http://www.w3.org/TR/2001/REC-SVG-20010904/DTD/svg10.dtd">
<svg version="1.0" xmlns="http://www.w3.org/2000/svg"
 width="72.000000pt" height="72.000000pt" viewBox="0 0 72.000000 72.000000"
 preserveAspectRatio="xMidYMid meet">

<g transform="translate(0.000000,72.000000) scale(0.100000,-0.100000)"
fill="#ffffff" stroke="none">
<path d="M269 707 c-104 -30 -190 -104 -237 -206 -38 -81 -38 -202 0 -283 72
-155 234 -241 394 -208 116 24 212 100 262 209 22 46 27 71 27 141 0 76 -3 92
-32 151 -60 121 -170 196 -300 205 -40 2 -87 -2 -114 -9z m156 -138 c10 -16 1
-21 -50 -26 -29 -4 -45 -2 -45 5 0 26 81 44 95 21z m-217 -129 c45 -10 48 -13
44 -39 -4 -31 19 -61 48 -61 10 0 28 12 39 28 l21 27 21 -27 c11 -16 29 -28
39 -28 29 0 52 30 48 61 -3 15 -1 26 3 24 3 -3 21 2 38 11 37 18 60 16 75 -9
14 -22 -3 -51 -33 -55 -13 -2 -27 -16 -35 -36 -7 -17 -28 -44 -45 -59 -29 -24
-40 -27 -109 -27 -93 0 -131 19 -158 79 -10 24 -25 41 -34 41 -35 0 -53 43
-28 68 14 14 7 14 66 2z m170 -22 c-3 -7 -11 -13 -18 -13 -7 0 -15 6 -17 13
-3 7 4 12 17 12 13 0 20 -5 18 -12z m-50 -10 c16 -16 15 -23 -4 -42 -19 -20
-29 -20 -48 0 -12 12 -13 20 -6 35 12 21 40 25 58 7z m127 -8 c8 -27 -12 -52
-39 -48 -21 3 -32 28 -22 54 8 22 54 18 61 -6z m-68 -176 c2 -6 -3 -14 -12
-18 -20 -7 -58 11 -49 25 8 13 56 7 61 -7z"/>
<path d="M290 396 c0 -9 7 -16 16 -16 9 0 14 5 12 12 -6 18 -28 21 -28 4z"/>
<path d="M407 403 c-12 -11 -8 -23 8 -23 8 0 15 7 15 15 0 16 -12 20 -23 8z"/>
</g>
</svg>
