<svg width="23" height="23" viewBox="0 0 23 23" fill="none" xmlns="http://www.w3.org/2000/svg">
<path d="M9.4375 20.4375V15.6177C9.4375 15.2812 9.78125 14.9375 10.125 14.9375H12.875C13.2188 14.9375 13.5625 15.2812 13.5625 15.625V20.4375C13.5625 20.8172 13.8703 21.125 14.25 21.125H19.75C20.1297 21.125 20.4375 20.8172 20.4375 20.4375V10.8125C20.4375 10.6302 20.3651 10.4553 20.2361 10.3264L18.375 8.46523V3.9375C18.375 3.5578 18.0672 3.25 17.6875 3.25H16.3125C15.9328 3.25 15.625 3.5578 15.625 3.9375V5.71523L11.9861 2.07636C11.7177 1.80788 11.2823 1.80788 11.0139 2.07636L2.76386 10.3264C2.63493 10.4553 2.5625 10.6302 2.5625 10.8125V20.4375C2.5625 20.8172 2.8703 21.125 3.25 21.125H8.75C9.1297 21.125 9.4375 20.8172 9.4375 20.4375Z" fill="#333442"/>
</svg>
