<svg width="19" height="21" viewBox="0 0 19 21" fill="none" xmlns="http://www.w3.org/2000/svg">
<path d="M7.4375 19.4375V14.6177C7.4375 14.2812 7.78125 13.9375 8.125 13.9375H10.875C11.2188 13.9375 11.5625 14.2812 11.5625 14.625V19.4375C11.5625 19.8172 11.8703 20.125 12.25 20.125H17.75C18.1297 20.125 18.4375 19.8172 18.4375 19.4375V9.8125C18.4375 9.63016 18.3651 9.4553 18.2361 9.32636L16.375 7.46523V2.9375C16.375 2.5578 16.0672 2.25 15.6875 2.25H14.3125C13.9328 2.25 13.625 2.5578 13.625 2.9375V4.71523L9.98614 1.07636C9.71765 0.807879 9.28235 0.807879 9.01386 1.07636L0.763864 9.32636C0.634933 9.4553 0.5625 9.63016 0.5625 9.8125V19.4375C0.5625 19.8172 0.870304 20.125 1.25 20.125H6.75C7.1297 20.125 7.4375 19.8172 7.4375 19.4375Z" fill="white"/>
</svg>
