<svg width="132" height="59" viewBox="0 0 132 59" fill="none" xmlns="http://www.w3.org/2000/svg">
<path d="M23.6021 12.2822C23.4323 10.6596 22.7248 9.39558 21.4796 8.48998C20.2533 7.58438 18.6025 7.13158 16.5272 7.13158C15.1122 7.13158 13.8953 7.33912 12.8765 7.75418C11.8765 8.15038 11.1124 8.70695 10.5842 9.42388C10.0559 10.1408 9.79178 10.9521 9.79178 11.8577C9.79178 13.2161 10.3766 14.2915 11.5464 15.0839C12.735 15.8574 14.3386 16.4706 16.3574 16.9234L20.0364 17.829C23.8285 18.6968 26.8189 20.1118 29.0074 22.0739C31.196 24.0172 32.2997 26.6019 32.3185 29.8281C32.3185 32.3185 31.6865 34.4882 30.4224 36.3371C29.1584 38.186 27.3377 39.6105 24.9605 40.6104C22.5833 41.6103 19.7534 42.1103 16.4706 42.1103C13.15 42.1292 10.2729 41.6292 7.83908 40.6104C5.40529 39.5916 3.50919 38.0823 2.15079 36.0824C0.792398 34.0826 0.0754665 31.6393 0 28.7527H8.26358C8.39565 30.7715 9.18804 32.3185 10.6408 33.3939C12.1124 34.4504 14.0179 34.9787 16.3574 34.9787C17.829 34.9787 19.1213 34.7617 20.2344 34.3278C21.3476 33.8939 22.206 33.2901 22.8097 32.5166C23.4135 31.7431 23.7153 30.8469 23.7153 29.8281C23.7153 28.5075 23.1399 27.4604 21.989 26.6868C20.857 25.8944 19.093 25.2058 16.697 24.6209L12.2256 23.5455C4.79212 21.7155 1.0754 17.9988 1.0754 12.3954C1.0754 9.96158 1.73573 7.81078 3.05639 5.94299C4.39592 4.05632 6.23542 2.59416 8.57488 1.5565C10.9332 0.518832 13.6028 0 16.5838 0C19.5647 0 22.1966 0.518832 24.4794 1.5565C26.7623 2.59416 28.5358 4.04689 29.7998 5.91469C31.0639 7.76361 31.7148 9.88611 31.7525 12.2822H23.6021Z" fill="white"/>
<path d="M50.5687 42.2755C47.4557 42.2755 44.7577 41.634 42.4749 40.3511C40.192 39.0493 38.4374 37.2098 37.2111 34.8326C36.0036 32.4554 35.3999 29.6537 35.3999 26.4275C35.3999 23.2957 36.0036 20.5317 37.2111 18.1356C38.4374 15.7207 40.1732 13.8529 42.4183 12.5322C44.6634 11.1927 47.267 10.5229 50.2291 10.5229C52.9836 10.5229 55.4457 11.1078 57.6153 12.2775C59.8039 13.4284 61.5207 15.1736 62.7659 17.513C64.03 19.8525 64.662 22.7108 64.662 26.0879V28.4651H43.6635C43.6635 29.9933 43.9465 31.3234 44.5125 32.4554C45.0973 33.5874 45.918 34.4647 46.9746 35.0873C48.05 35.691 49.3046 35.9929 50.7385 35.9929C52.1346 35.974 53.3326 35.691 54.3326 35.1439C55.3325 34.5779 56.04 33.8232 56.455 32.8799H64.4356C64.0394 34.7854 63.2282 36.4457 62.0018 37.8607C60.7755 39.2568 59.1813 40.3416 57.2191 41.1152C55.2759 41.8887 53.0591 42.2755 50.5687 42.2755ZM56.738 23.2013C56.738 21.975 56.4645 20.8713 55.9174 19.8902C55.3891 18.9092 54.6439 18.1545 53.6817 17.6262C52.7195 17.0791 51.6252 16.8055 50.3989 16.8055C49.1537 16.8055 48.0217 17.0885 47.0029 17.6545C46.0029 18.2205 45.2105 18.9941 44.6257 19.9751C44.0408 20.9562 43.7201 22.0316 43.6635 23.2013H56.738Z" fill="white"/>
<path fill-rule="evenodd" clip-rule="evenodd" d="M53.8941 55.7139C56.9133 57.4107 60.4815 58.2591 64.5987 58.2591C67.8925 58.2591 70.8244 57.7475 73.3945 56.7245C75.9896 55.7014 78.0981 54.2666 79.72 52.4202C81.3419 50.5487 82.4149 48.3529 82.9389 45.8327H72.3839C71.835 47.0803 70.8993 48.0784 69.5768 48.827C68.2543 49.5506 66.6698 49.9249 64.8233 49.9498C62.9269 49.9498 61.2676 49.5506 59.8453 48.7521C58.6008 48.0188 57.6037 47.0182 56.854 45.7505L45.8149 45.7505C46.1294 46.6795 46.5018 47.5678 46.9323 48.4153C48.5542 51.5593 50.8748 53.9922 53.8941 55.7139Z" fill="white"/>
<path d="M79.5472 42.2755C76.4342 42.2755 73.7363 41.634 71.4534 40.3511C69.1705 39.0493 67.4159 37.2098 66.1896 34.8326C64.9821 32.4554 64.3784 29.6537 64.3784 26.4275C64.3784 23.2957 64.9821 20.5317 66.1896 18.1356C67.4159 15.7207 69.1517 13.8529 71.3968 12.5322C73.6419 11.1927 76.2455 10.5229 79.2076 10.5229C81.9621 10.5229 84.4242 11.1078 86.5939 12.2775C88.7824 13.4284 90.4993 15.1736 91.7444 17.513C93.0085 19.8525 93.6405 22.7108 93.6405 26.0879V28.4651H72.642C72.642 29.9933 72.925 31.3234 73.491 32.4554C74.0759 33.5874 74.8966 34.4647 75.9531 35.0873C77.0285 35.691 78.2831 35.9929 79.717 35.9929C81.1131 35.974 82.3111 35.691 83.3111 35.1439C84.311 34.5779 85.0185 33.8232 85.4336 32.8799H93.4141C93.0179 34.7854 92.2067 36.4457 90.9804 37.8607C89.754 39.2568 88.1598 40.3416 86.1977 41.1152C84.2544 41.8887 82.0376 42.2755 79.5472 42.2755ZM85.7166 23.2013C85.7166 21.975 85.443 20.8713 84.8959 19.8902C84.3676 18.9092 83.6224 18.1545 82.6602 17.6262C81.698 17.0791 80.6037 16.8055 79.3774 16.8055C78.1322 16.8055 77.0002 17.0885 75.9814 17.6545C74.9815 18.2205 74.1891 18.9941 73.6042 19.9751C73.0193 20.9562 72.6986 22.0316 72.642 23.2013H85.7166Z" fill="white"/>
<path d="M97.644 2.43555H106.134V20.6041H106.7L121.586 2.43555H131.83L116.548 20.7739L132 43.4138H121.812L110.436 26.4905L106.134 31.6977V43.4138H97.644V2.43555Z" fill="white"/>
</svg>
