<svg width="23" height="23" viewBox="0 0 23 23" fill="none" xmlns="http://www.w3.org/2000/svg">
<path fill-rule="evenodd" clip-rule="evenodd" d="M22.5 1.18751C22.5 0.981536 22.4077 0.786416 22.2484 0.655833C22.0891 0.52525 21.8796 0.472963 21.6777 0.513357L14.9375 1.86139L8.19733 0.513357C8.10833 0.495556 8.01667 0.495556 7.92767 0.513357L1.05267 1.88836C0.731316 1.95263 0.5 2.23479 0.5 2.56251V21.8125C0.5 22.0185 0.592347 22.2136 0.751633 22.3442C0.910918 22.4748 1.12036 22.5271 1.32233 22.4867L8.0625 21.1386L14.8027 22.4867C14.8917 22.5045 14.9833 22.5045 15.0723 22.4867L21.9473 21.1117C22.2687 21.0474 22.5 20.7652 22.5 20.4375V1.18751ZM7.5625 20.0276V1.79738L8.0625 1.69738L8.5625 1.79738V20.0276L8.16056 19.9472C8.09583 19.9342 8.02917 19.9342 7.96444 19.9472L7.5625 20.0276ZM14.4375 21.2026V2.97238L14.8394 3.05277C14.9042 3.06572 14.9708 3.06572 15.0356 3.05277L15.4375 2.97238V21.2026L14.9375 21.3026L14.4375 21.2026Z" fill="#333442"/>
</svg>
