<svg width="22" height="22" viewBox="0 0 22 22" fill="none" xmlns="http://www.w3.org/2000/svg">
<path d="M6.18945 12.375C7.32854 12.375 8.25195 11.4516 8.25195 10.3125C8.25195 9.17341 7.32854 8.25 6.18945 8.25C5.05037 8.25 4.12695 9.17341 4.12695 10.3125C4.12695 11.4516 5.05037 12.375 6.18945 12.375Z" fill="white"/>
<path d="M19.252 17.875C19.252 19.3938 18.0207 20.625 16.502 20.625H2.75195C1.23317 20.625 0.00195312 19.3938 0.00195312 17.875V6.875C0.00195312 5.35692 1.23203 4.12614 2.74983 4.125C2.74983 2.60622 3.98105 1.375 5.49983 1.375H19.2498C20.7686 1.375 21.9998 2.60622 21.9998 4.125V15.125C21.9998 16.6431 20.7698 17.8739 19.252 17.875ZM19.2498 2.75H5.49983C4.74044 2.75 4.12483 3.36561 4.12483 4.125L16.502 4.125C18.0207 4.125 19.252 5.35622 19.252 6.875V16.5C20.0104 16.4989 20.6248 15.8837 20.6248 15.125V4.125C20.6248 3.36561 20.0092 2.75 19.2498 2.75ZM2.75195 5.5C1.99256 5.5 1.37695 6.11561 1.37695 6.875V17.875L5.01582 14.6389C5.24755 14.4072 5.61063 14.3712 5.88331 14.553L9.53935 16.9903L14.6408 11.8889C14.8501 11.6796 15.1697 11.6278 15.4344 11.7601L17.877 14.4375V6.875C17.877 6.11561 17.2613 5.5 16.502 5.5H2.75195Z" fill="white"/>
</svg>
