<svg width="48" height="49" viewBox="0 0 48 49" fill="none" xmlns="http://www.w3.org/2000/svg">
<circle cx="24" cy="24.5" r="24" fill="url(#paint0_linear_1279_5064)"/>
<path fill-rule="evenodd" clip-rule="evenodd" d="M24 17.1365C24.3389 17.1365 24.6136 17.4112 24.6136 17.7501V23.8865H30.75C31.0889 23.8865 31.3636 24.1612 31.3636 24.5001C31.3636 24.839 31.0889 25.1137 30.75 25.1137H24.6136V31.2501C24.6136 31.589 24.3389 31.8637 24 31.8637C23.6611 31.8637 23.3864 31.589 23.3864 31.2501V25.1137H17.25C16.9111 25.1137 16.6364 24.839 16.6364 24.5001C16.6364 24.1612 16.9111 23.8865 17.25 23.8865H23.3864V17.7501C23.3864 17.4112 23.6611 17.1365 24 17.1365Z" fill="white"/>
<defs>
<linearGradient id="paint0_linear_1279_5064" x1="24" y1="0.5" x2="24" y2="48.5" gradientUnits="userSpaceOnUse">
<stop stop-color="#604DF2"/>
<stop offset="1" stop-color="#A298F8"/>
</linearGradient>
</defs>
</svg>
