<svg width="19" height="18" viewBox="0 0 19 18" fill="none" xmlns="http://www.w3.org/2000/svg">
<path d="M10.1042 1.76222C9.60484 0.912592 8.39864 0.912592 7.89928 1.76222L0.185204 14.8872C-0.328958 15.762 0.288313 16.875 1.28766 16.875H16.7158C17.7152 16.875 18.3324 15.762 17.8183 14.8872L10.1042 1.76222ZM9 5.625C9.60234 5.625 10.073 6.14507 10.0131 6.74442L9.61847 10.6903C9.5867 11.008 9.31932 11.25 9 11.25C8.68067 11.25 8.4133 11.008 8.38153 10.6903L7.98694 6.74442C7.92701 6.14507 8.39766 5.625 9 5.625ZM9.00173 12.375C9.62305 12.375 10.1267 12.8787 10.1267 13.5C10.1267 14.1213 9.62305 14.625 9.00173 14.625C8.38041 14.625 7.87673 14.1213 7.87673 13.5C7.87673 12.8787 8.38041 12.375 9.00173 12.375Z" fill="white"/>
</svg>
