<svg width="104" height="43" viewBox="0 0 104 43" fill="none" xmlns="http://www.w3.org/2000/svg">
<path d="M52.866 41.5C52.4811 42.1667 51.5189 42.1667 51.134 41.5L45.0718 31C44.6869 30.3333 45.168 29.5 45.9378 29.5L58.0622 29.5C58.832 29.5 59.3131 30.3333 58.9282 31L52.866 41.5Z" fill="black"/>
<rect width="104" height="32" rx="8" fill="black"/>
<path d="M30.7061 9.91211H29.4072V12.1816H27.4932V13.248H29.4072V14.5332H27.4932V15.627H29.4072V19.0039H30.7061V9.91211ZM20.5068 16.1738L20.6709 17.2676C22.6328 17.2607 25.3945 17.2129 27.7393 16.8438L27.6846 15.8867C27.1992 15.9414 26.7002 15.9824 26.1807 16.0234V11.9219H27.3564V10.8691H20.8486V11.9219H21.9971V16.167C21.4707 16.167 20.9648 16.1738 20.5068 16.1738ZM22.7217 21.9023H31.0205V20.8496H24.0342V18.2656H22.7217V21.9023ZM23.2549 16.1465V11.9219H24.9365V16.0918C24.3691 16.1123 23.8086 16.1328 23.2549 16.1465ZM37.1045 13.5215V12.2227H39.8936V11.1426H32.9893V12.2227H35.792V13.5215C35.7783 15.6338 34.4111 17.9307 32.5654 18.7988L33.3174 19.8242C34.7461 19.127 35.8945 17.6367 36.4619 15.8867C37.0293 17.5205 38.1777 18.874 39.6201 19.5098L40.3311 18.498C38.4443 17.6914 37.0977 15.5723 37.1045 13.5215ZM41.4385 22.1621H42.7373V9.91211H41.4385V22.1621ZM59.3213 19.5645H54.3311V17.0488H57.9951V10.7461H56.71V12.8516H50.6943V10.7461H49.3955V17.0488H53.0459V19.5645H48.1104V20.6445H59.3213V19.5645ZM50.6943 15.9961V13.9043H56.71V15.9961H50.6943ZM70.6963 9.91211H69.4521V14.8203H67.8799V10.1582H66.6631V21.5332H67.8799V15.8867H69.4521V22.1621H70.6963V9.91211ZM60.7842 19.0449H61.5771C62.8965 19.0518 64.2979 18.9629 65.9795 18.6621L65.8428 17.5273C64.4482 17.8008 63.2109 17.8896 62.083 17.9033V11.3613H60.7842V19.0449ZM82.4951 9.91211H81.1826V22.1621H82.4951V9.91211ZM72.4326 18.8809L73.1162 19.9336C77.3203 17.917 78.8447 14.8135 78.8447 11.2246H73.0205V12.2637H77.5322C77.2793 15.1211 75.6865 17.3291 72.4326 18.8809Z" fill="white"/>
</svg>
